<?xml version="1.0" encoding="UTF-8"?>
<!DOCTYPE svg PUBLIC "-//W3C//DTD SVG 1.1//EN" "http://www.w3.org/Graphics/SVG/1.1/DTD/svg11.dtd">
<!-- Creator: CorelDRAW 2020 (64-Bit) -->
<svg xmlns="http://www.w3.org/2000/svg" xml:space="preserve" width="100px" height="100px" version="1.1" style="shape-rendering:geometricPrecision; text-rendering:geometricPrecision; image-rendering:optimizeQuality; fill-rule:evenodd; clip-rule:evenodd"
viewBox="0 0 100 100.32"
 xmlns:xlink="http://www.w3.org/1999/xlink"
 xmlns:xodm="http://www.corel.com/coreldraw/odm/2003">
 <defs>
  <style type="text/css">
   <![CDATA[
    .fil0 {fill:#00FF40}
   ]]>
  </style>
 </defs>
 <g id="Layer_x0020_1">
  <metadata id="CorelCorpID_0Corel-Layer"/>
  <path class="fil0" d="M13.47 42.82c8.52,-8.81 17.04,-8.87 25.57,0 -8.53,8.9 -17.05,8.89 -25.57,0zm12.18 51.2l-25.51 6.01 12.12 -16.83c-6.9,-7.88 -11.38,-17.94 -12.26,-29.01l100 0c-2.06,25.82 -23.66,46.13 -50,46.13 -8.84,0 -17.14,-2.29 -24.35,-6.3zm35.31 -51.18c8.52,-8.81 17.04,-8.87 25.57,0 -8.53,8.9 -17.05,8.89 -25.57,0zm-10.96 -42.84c21.07,0 39.1,12.99 46.53,31.4l-93.06 0c7.43,-18.41 25.46,-31.4 46.53,-31.4z"/>
 </g>
</svg>
